<svg xmlns="http://www.w3.org/2000/svg" xmlns:xlink="http://www.w3.org/1999/xlink" width="565.508" height="157.758" viewBox="0 0 565.508 157.758">
  <defs>
    <linearGradient id="linear-gradient" y1="0.5" x2="1" y2="0.5" gradientUnits="objectBoundingBox">
      <stop offset="0" stop-color="#fe8953"/>
      <stop offset="1" stop-color="#fc6074"/>
    </linearGradient>
    <filter id="Path_38744" x="103.131" y="58.652" width="47.243" height="47.005" filterUnits="userSpaceOnUse">
      <feOffset dx="-2" dy="2" input="SourceAlpha"/>
      <feGaussianBlur stdDeviation="1.5" result="blur"/>
      <feFlood flood-opacity="0.6"/>
      <feComposite operator="in" in2="blur"/>
      <feComposite in="SourceGraphic"/>
    </filter>
    <filter id="Path_38746" x="74.255" y="89.298" width="54.124" height="55.701" filterUnits="userSpaceOnUse">
      <feOffset dx="5" dy="9" input="SourceAlpha"/>
      <feGaussianBlur stdDeviation="2.5" result="blur-2"/>
      <feFlood flood-opacity="0.6"/>
      <feComposite operator="in" in2="blur-2"/>
      <feComposite in="SourceGraphic"/>
    </filter>
    <filter id="Path_38748" x="45.874" y="58.652" width="47.243" height="47.005" filterUnits="userSpaceOnUse">
      <feOffset dx="1" dy="2" input="SourceAlpha"/>
      <feGaussianBlur stdDeviation="1.5" result="blur-3"/>
      <feFlood flood-opacity="0.6"/>
      <feComposite operator="in" in2="blur-3"/>
      <feComposite in="SourceGraphic"/>
    </filter>
    <filter id="Path_38750" x="72.836" y="26.979" width="47.37" height="47.958" filterUnits="userSpaceOnUse">
      <feOffset dx="-2" dy="2" input="SourceAlpha"/>
      <feGaussianBlur stdDeviation="1.5" result="blur-4"/>
      <feFlood flood-opacity="0.6"/>
      <feComposite operator="in" in2="blur-4"/>
      <feComposite in="SourceGraphic"/>
    </filter>
  </defs>
  <g id="Group_22443" data-name="Group 22443" transform="translate(-379.285 1495.053)">
    <path id="Path_38736" data-name="Path 38736" d="M630.751-1433.7c1.2.641.679,1.774.682,2.682.036,11.719.063,23.438-.015,35.156-.013,1.923.466,2.615,2.5,2.557,5.9-.167,11.8-.135,17.693-.161,1.061,0,1.59-.017,1.638-1.526.39-12.29.1-24.581.142-36.87.068-18.617.012-37.234.034-55.851,0-.962-.336-2.005.394-2.881.027,1.327.078,2.654.078,3.98q.006,45.577.049,91.156c.005,2.08-.549,2.622-2.609,2.573-6.059-.145-12.124-.118-18.184-.009-1.775.032-2.2-.515-2.191-2.234.074-11.871.046-23.743.031-35.615C630.988-1431.732,630.834-1432.717,630.751-1433.7Z" fill="#0598a8"/>
    <g id="Group_22442" data-name="Group 22442">
      <path id="Path_38737" data-name="Path 38737" d="M941.68-1432.626c-2.88-8.177-8.127-14.183-16.187-17.553-6.932-2.9-14.28-4.349-21.571-5.98-3.322-.742-6.681-1.413-9.649-3.169a7.6,7.6,0,0,1-3.911-7.753,7.331,7.331,0,0,1,5.288-6.561,24.681,24.681,0,0,1,12.784-.737c5.516.953,9.173,4.387,11.345,9.457.435,1.016.57,1.95,2.2,1.374,5.632-1.991,11.325-3.812,17.006-5.665.973-.317,1.308-.675.883-1.772-2.9-7.472-7.6-13.4-14.723-17.213-9.315-4.983-19.35-5.547-29.559-4.362-15.623,1.813-27.19,13.464-28.072,28.538-.76,13,3.877,21.286,15.5,26.54a83.593,83.593,0,0,0,13.885,4.729c5.46,1.392,11.089,2.129,16.338,4.346,3.274,1.383,5.734,3.41,6.013,7.187.282,3.815-1.726,6.48-4.763,8.442-3.115,2.011-6.673,2.4-10.269,2.451-9.367.127-17.124-2.956-20.145-12.416-.355-1.114-.941-1.179-1.845-.971-6.144,1.413-12.283,2.854-18.441,4.2-1.337.293-1.521.835-1.168,2.061,3.166,10.994,10.166,18.476,20.788,22.522,11.062,4.213,22.4,4.113,33.776,1.544a32.749,32.749,0,0,0,20.659-14.112c2.434-3.622,3.621-7.727,4.954-11.79v-10.975C941.833-1430.768,941.968-1431.808,941.68-1432.626Z" stroke="#fff" stroke-miterlimit="10" stroke-width="4" fill="url(#linear-gradient)"/>
      <path id="Path_38738" data-name="Path 38738" d="M855.451-1491.6c-10.225.069-20.452.1-30.676-.018-2.1-.024-3.039.587-3.659,2.617-4.287,14.037-8.693,28.037-13.076,42.045-1.358,4.341-2.761,8.668-4.269,13.4a13.052,13.052,0,0,1-.6-1.319q-7.9-27.363-15.747-54.74c-.409-1.436-.944-1.991-2.5-1.981q-16.086.1-32.173,0c-1.668-.01-2.061.514-2.058,2.128q.072,47.252,0,94.5c0,1.7.531,2.085,2.114,2.064,5.735-.078,11.472-.027,17.209-.025.773-.768.367-1.735.368-2.594q.039-36.006.062-72.012c0-.82-.723-1.972.6-2.541a9.682,9.682,0,0,0,.191.976q11.13,37.276,22.234,74.562a1.954,1.954,0,0,0,2.3,1.622c4.07-.054,8.143-.086,12.212.015a2.165,2.165,0,0,0,2.486-1.794c1.284-4.286,2.621-8.557,3.961-12.826q9.819-31.306,19.652-62.608c1.475.465.655,1.68.657,2.461q.087,36.081.07,72.161c0,.854-.417,1.822.375,2.581,6.817,0,13.635-.065,20.451.034,1.811.026,2.387-.392,2.383-2.318q-.1-47,.005-94C858.022-1491.358,857.255-1491.612,855.451-1491.6Z" stroke="#fff" stroke-miterlimit="10" stroke-width="4" fill="url(#linear-gradient)"/>
      <path id="Path_38739" data-name="Path 38739" d="M651.815-1491.528c-5.987-.061-11.977.055-17.961-.083-2.178-.051-2.949.4-2.917,2.8.149,11.055,0,22.114.122,33.17.024,2.149-.619,2.576-2.635,2.548q-12.471-.171-24.945.007c-2.06.031-2.641-.486-2.621-2.575.106-11.222.019-22.446.089-33.669.01-1.683-.345-2.31-2.172-2.277-6.234.114-12.473.1-18.708.006-1.653-.025-2.072.468-2.07,2.093q.069,47.262,0,94.525c0,1.672.485,2.1,2.1,2.072,6.152-.086,12.309-.13,18.459.018,2.09.051,2.419-.693,2.406-2.558-.081-11.888,0-23.777-.089-35.665-.014-1.925.442-2.527,2.455-2.511,9.142.074,18.285-.033,27.429-.076.963.687.428,1.685.431,2.507.043,11.964.064,23.928-.008,35.891-.01,1.729.441,2.274,2.212,2.24,5.815-.108,11.634-.085,17.45-.014,1.9.023,3.13-.188,2.763-2.6a22.22,22.22,0,0,1,.047-3.224q.006-44.488.011-88.979a8,8,0,0,1,.158-2.719C653.795-1492.256,652.511-1491.521,651.815-1491.528Z" stroke="#fff" stroke-miterlimit="10" stroke-width="4" fill="url(#linear-gradient)"/>
      <path id="Path_38740" data-name="Path 38740" d="M726.884-1434.194c-.776-1.816-.393-2.461,1.269-3.291,20.383-10.179,17.573-36.461,4.794-47.324-6.223-5.289-13.751-6.539-21.424-6.675-15.124-.267-30.255-.045-45.384-.117-1.83-.009-2.376.421-2.372,2.322q.1,47,.01,93.989c0,1.811.352,2.436,2.3,2.392q9.1-.2,18.2,0c2.034.048,2.66-.439,2.641-2.555-.107-11.3.015-22.6-.1-33.9-.022-2.153.618-2.63,2.639-2.543,3.816.165,7.65.161,11.467,0,1.912-.081,2.739.639,3.4,2.357,4.1,10.678,8.3,21.316,12.483,31.964,1.819,4.636,1.828,4.632,6.762,4.632h20.612c-.306-.81-.487-1.341-.7-1.857C737.961-1407.941,732.488-1421.095,726.884-1434.194Zm-9.569-21.445a11.841,11.841,0,0,1-10.005,6.368c-6.289.483-12.585.441-18.883.48-1.436.009-1.6-.638-1.58-1.806.05-3.567.018-7.135.019-10.7s.035-7.135-.018-10.7c-.017-1.11.2-1.679,1.48-1.642,6.712.194,13.446-.419,20.137.321A11.75,11.75,0,0,1,717.315-1455.639Z" stroke="#fff" stroke-miterlimit="10" stroke-width="4" fill="url(#linear-gradient)"/>
    </g>
    <path id="Path_38741" data-name="Path 38741" d="M651.98-1397.007v-90.953h.249v91.058Z" fill="#0293ac"/>
    <path id="Path_38743" data-name="Path 38743" d="M551.606-1376.442c3.246-5.578,2.4-13.214-1.129-18.155-5.932-8.295-18.087-4.1-18.087-4.1,2.581-12.707-3.758-15.666-3.758-15.666s-69.365-69.245-75.65-75.4-12.659-1.881-12.659-1.881l-1.868,1.669-.287-.288-2.4,2.691-2.691,2.4.288.287-1.669,1.868s-4.271,6.375,1.881,12.66,75.4,75.65,75.4,75.65,2.959,6.338,15.666,3.758c0,0-4.194,12.154,4.1,18.087,4.941,3.533,12.577,4.374,18.155,1.128a25.006,25.006,0,0,0,2.273-1.691c.131-.12.268-.228.395-.354s.234-.264.354-.395a13.383,13.383,0,0,0,1.714-2.25Z" fill="#f6d92f" stroke="#fff" stroke-miterlimit="10" stroke-width="2"/>
    <g transform="matrix(1, 0, 0, 1, 379.28, -1495.05)" filter="url(#Path_38744)">
      <path id="Path_38744-2" data-name="Path 38744" d="M488.916-1415.5l18.533-18.4,19.71,18.4L507.53-1395.9Z" transform="translate(-379.28 1495.05)"/>
    </g>
    <path id="Path_38745" data-name="Path 38745" d="M552.631-1451.614l-1.669-1.869.288-.286-2.69-2.4-2.4-2.69-.287.287L544-1460.245s-6.375-4.271-12.659,1.881-75.65,75.4-75.65,75.4-6.338,2.959-3.758,15.666c0,0-12.155-4.194-18.087,4.1-3.534,4.941-4.375,12.577-1.129,18.155l-.023.023a13.335,13.335,0,0,0,1.715,2.25c.119.131.228.268.353.4s.264.234.395.354a13.333,13.333,0,0,0,2.25,1.714l.023-.022c5.578,3.246,13.214,2.405,18.155-1.129,8.3-5.932,4.1-18.087,4.1-18.087,12.706,2.58,15.665-3.758,15.665-3.758s69.245-69.366,75.4-75.65S552.631-1451.614,552.631-1451.614Z" stroke="#fff" stroke-miterlimit="10" stroke-width="2" fill="url(#linear-gradient)"/>
    <g transform="matrix(1, 0, 0, 1, 379.28, -1495.05)" filter="url(#Path_38746)">
      <path id="Path_38746-2" data-name="Path 38746" d="M458.04-1385.155l19.582-19.6,19.541,19.6-19.629,19.605Z" transform="translate(-381.28 1494.05)" fill="#67c4dd"/>
    </g>
    <path id="Path_38747" data-name="Path 38747" d="M520.353-1361.842c-6.152-6.284-75.4-75.65-75.4-75.65s-2.959-6.338-15.666-3.758c0,0,4.194-12.155-4.1-18.087-4.941-3.533-12.577-4.375-18.155-1.129l-.023-.022a13.353,13.353,0,0,0-2.252,1.716c-.13.119-.266.227-.392.352s-.236.265-.356.4a13.372,13.372,0,0,0-1.713,2.249l.023.023c-3.247,5.578-2.405,13.214,1.128,18.155,5.933,8.3,18.088,4.1,18.088,4.1-2.581,12.707,3.757,15.666,3.757,15.666s69.366,69.245,75.65,75.4,12.66,1.881,12.66,1.881l1.868-1.669.287.288,2.4-2.691,2.691-2.4-.288-.287,1.669-1.868S526.505-1355.557,520.353-1361.842Z" transform="translate(-20 -20.319)" fill="#f6d92f" stroke="#fff" stroke-miterlimit="10" stroke-width="2"/>
    <g transform="matrix(1, 0, 0, 1, 379.28, -1495.05)" filter="url(#Path_38748)">
      <path id="Path_38748-2" data-name="Path 38748" d="M428.659-1415.5l18.533-18.4,19.71,18.4L447.273-1395.9Z" transform="translate(-379.28 1495.05)"/>
    </g>
    <path id="Path_38749" data-name="Path 38749" d="M521.455-1484.9l.022-.022a13.28,13.28,0,0,0-1.713-2.249c-.12-.132-.229-.269-.355-.4s-.263-.233-.393-.351a13.316,13.316,0,0,0-2.252-1.717l-.022.023c-5.579-3.246-13.214-2.405-18.156,1.129-8.294,5.932-4.1,18.087-4.1,18.087-12.707-2.58-15.666,3.758-15.666,3.758s-69.244,69.365-75.4,75.65-1.882,12.659-1.882,12.659l1.669,1.869-.287.286,2.69,2.4,2.4,2.69.286-.287,1.869,1.669s6.374,4.271,12.659-1.882,75.65-75.4,75.65-75.4,6.338-2.958,3.758-15.665c0,0,12.155,4.193,18.087-4.1C523.86-1471.69,524.7-1479.325,521.455-1484.9Z" stroke="#fff" stroke-miterlimit="10" stroke-width="2" fill="url(#linear-gradient)"/>
    <g transform="matrix(1, 0, 0, 1, 379.28, -1495.05)" filter="url(#Path_38750)">
      <path id="Path_38750-2" data-name="Path 38750" d="M458.621-1445.931l17.76-19.642,20.61,20.534-18.556,18.424Z" transform="translate(-379.28 1495.05)" fill="#67c4dd"/>
    </g>
    <path id="Path_38751" data-name="Path 38751" d="M459.413-1445.826" fill="#67c4dd"/>
    <path id="Path_38752" data-name="Path 38752" d="M549.561-1373.774" fill="#67c4dd"/>
    <text id="TRANSCURE" transform="translate(577.993 -1351.816)" fill="#fff" stroke="#fe8457" stroke-miterlimit="10" stroke-width="0.5" font-size="45" font-family="OpenSans-Bold, Open Sans" font-weight="700" letter-spacing="0.25em"><tspan x="0" y="0">TRANSCURE</tspan></text>
    <path id="Path_38753" data-name="Path 38753" d="M507.632-1435.364s-48.365-48.245-54.65-54.4-12.659-1.881-12.659-1.881l-1.868,1.669-.287-.288-2.4,2.691-2.691,2.4.288.287-1.669,1.868s-4.271,6.375,1.881,12.66,54.4,54.65,54.4,54.65Z" fill="#f6d92f" stroke="#fff" stroke-miterlimit="10" stroke-width="2"/>
  </g>
</svg>
